<?xml version="1.0" encoding="UTF-8" standalone="no"?>
<!-- Created with Inkscape (http://www.inkscape.org/) -->

<svg
   width="32.007061mm"
   height="11.313709mm"
   viewBox="0 0 32.007061 11.313709"
   version="1.1"
   id="svg1"
   xmlns:xlink="http://www.w3.org/1999/xlink"
   xmlns="http://www.w3.org/2000/svg"
   xmlns:svg="http://www.w3.org/2000/svg">
  <defs
     id="defs1">
    <linearGradient
       xlink:href="#linearGradient136"
       id="linearGradient22"
       gradientUnits="userSpaceOnUse"
       x1="249.96239"
       y1="211.05968"
       x2="249.96239"
       y2="250.78935"
       spreadMethod="pad" />
    <linearGradient
       id="linearGradient136">
      <stop
         style="stop-color:#3b3b3b;stop-opacity:1;"
         offset="0.42005879"
         id="stop135" />
      <stop
         style="stop-color:#111111;stop-opacity:1;"
         offset="0.77848029"
         id="stop136" />
    </linearGradient>
    <filter
       style="color-interpolation-filters:sRGB"
       id="filter107"
       x="-0.017711612"
       y="-0.05373877"
       width="1.0354232"
       height="1.1074775">
      <feGaussianBlur
         stdDeviation="0.22812601"
         id="feGaussianBlur107" />
    </filter>
    <linearGradient
       xlink:href="#linearGradient138"
       id="linearGradient21"
       gradientUnits="userSpaceOnUse"
       gradientTransform="translate(0,5.1997354)"
       x1="249.96239"
       y1="211.05968"
       x2="249.96239"
       y2="250.78935"
       spreadMethod="pad" />
    <linearGradient
       id="linearGradient138">
      <stop
         style="stop-color:#4f4f4f;stop-opacity:1;"
         offset="0.42005879"
         id="stop137" />
      <stop
         style="stop-color:#282828;stop-opacity:1;"
         offset="0.61043513"
         id="stop138" />
    </linearGradient>
  </defs>
  <g
     id="layer1"
     transform="translate(-23.283323,-123.03125)">
    <g
       id="g21"
       style="mix-blend-mode:normal;fill:url(#linearGradient22);fill-opacity:1"
       transform="translate(-212.94632,-112.9244)">
      <path
         id="path18"
         style="opacity:1;mix-blend-mode:normal;fill:#282828;fill-opacity:0.27451;stroke:none;stroke-width:0.01;stroke-dasharray:none;stroke-opacity:1;filter:url(#filter107)"
         transform="translate(0.02176549,5.7777263)"
         d="m 236.75538,230.92525 h 3.175 q 1.98966,0 2.94922,1.26999 0.95955,1.27 0.95955,3.65478 0,2.38478 -0.95955,3.65477 -0.95956,1.27 -2.94922,1.27 h -3.175 z m 3.03388,8.18443 q 0.94545,0 1.38289,-0.60677 0.43745,-0.60678 0.43745,-1.76389 v -1.79211 q 0,-1.143 -0.43745,-1.74978 -0.43744,-0.60677 -1.38289,-0.60677 h -0.94544 v 6.51932 z m 10.2711,1.66511 -0.62089,-2.37066 h -2.69522 l -0.60678,2.37066 h -2.14488 l 2.66699,-9.84954 h 2.99156 l 2.667,9.84954 z m -1.905,-7.80343 h -0.11289 l -0.95955,3.72533 h 2.032 z m 7.91454,7.97277 q -1.24177,0 -2.159,-0.40923 -0.91722,-0.40922 -1.48166,-1.11477 l 1.22766,-1.35467 q 0.53623,0.59267 1.17123,0.87489 0.64911,0.28222 1.31233,0.28222 0.762,0 1.15711,-0.33866 0.39511,-0.33867 0.39511,-0.97367 0,-0.52211 -0.31045,-0.79022 -0.29633,-0.26811 -1.01599,-0.381 l -1.03012,-0.16933 q -1.32644,-0.22578 -1.9191,-0.97367 -0.59267,-0.762 -0.59267,-1.84855 0,-1.42523 0.93133,-2.20134 0.93133,-0.79022 2.61056,-0.79022 1.14299,0 1.98966,0.35278 0.84667,0.35278 1.36878,0.95955 l -1.19945,1.34056 q -0.39511,-0.43744 -0.93133,-0.67733 -0.53622,-0.254 -1.21355,-0.254 -1.42522,0 -1.42522,1.17122 0,0.508 0.31044,0.762 0.32455,0.254 1.04422,0.381 l 1.03011,0.18344 q 1.19944,0.21167 1.84856,0.90311 0.64911,0.69145 0.64911,1.86267 0,0.69144 -0.23989,1.28411 -0.23989,0.57855 -0.71967,1.016 -0.47978,0.42333 -1.18533,0.66322 -0.69145,0.23989 -1.62278,0.23989 z m 9.46677,-4.28978 h -2.48356 v 4.12044 h -2.13077 v -9.84954 h 2.13077 v 3.99344 h 2.48356 v -3.99344 h 2.13077 v 9.84954 h -2.13077 z" />
      <path
         id="path13"
         style="opacity:1;fill:url(#linearGradient21);fill-opacity:1;stroke:none;stroke-width:0.01;stroke-dasharray:none;stroke-opacity:1"
         d="m 236.75538,236.12499 h 3.175 q 1.98966,0 2.94922,1.26999 0.95955,1.27 0.95955,3.65478 0,2.38478 -0.95955,3.65477 -0.95956,1.27 -2.94922,1.27 h -3.175 z m 3.03388,8.18443 q 0.94545,0 1.38289,-0.60677 0.43745,-0.60678 0.43745,-1.76389 v -1.79211 q 0,-1.143 -0.43745,-1.74978 -0.43744,-0.60677 -1.38289,-0.60677 h -0.94544 v 6.51932 z m 10.2711,1.66511 -0.62089,-2.37066 h -2.69522 l -0.60678,2.37066 h -2.14488 l 2.66699,-9.84954 h 2.99156 l 2.667,9.84954 z m -1.905,-7.80343 h -0.11289 l -0.95955,3.72533 h 2.032 z m 7.91454,7.97277 q -1.24177,0 -2.159,-0.40923 -0.91722,-0.40922 -1.48166,-1.11477 l 1.22766,-1.35467 q 0.53623,0.59267 1.17123,0.87489 0.64911,0.28222 1.31233,0.28222 0.762,0 1.15711,-0.33866 0.39511,-0.33867 0.39511,-0.97367 0,-0.52211 -0.31045,-0.79022 -0.29633,-0.26811 -1.01599,-0.381 l -1.03012,-0.16933 q -1.32644,-0.22578 -1.9191,-0.97367 -0.59267,-0.762 -0.59267,-1.84855 0,-1.42523 0.93133,-2.20134 0.93133,-0.79022 2.61056,-0.79022 1.14299,0 1.98966,0.35278 0.84667,0.35278 1.36878,0.95955 l -1.19945,1.34056 q -0.39511,-0.43744 -0.93133,-0.67733 -0.53622,-0.254 -1.21355,-0.254 -1.42522,0 -1.42522,1.17122 0,0.508 0.31044,0.762 0.32455,0.254 1.04422,0.381 l 1.03011,0.18344 q 1.19944,0.21167 1.84856,0.90311 0.64911,0.69145 0.64911,1.86267 0,0.69144 -0.23989,1.28411 -0.23989,0.57855 -0.71967,1.016 -0.47978,0.42333 -1.18533,0.66322 -0.69145,0.23989 -1.62278,0.23989 z m 9.46677,-4.28978 h -2.48356 v 4.12044 h -2.13077 v -9.84954 h 2.13077 v 3.99344 h 2.48356 v -3.99344 h 2.13077 v 9.84954 h -2.13077 z" />
    </g>
  </g>
</svg>
